<?xml version="1.0" encoding="UTF-8"?>
<svg version="1.1" viewBox="0 0 300 91" xml:space="preserve" xmlns="http://www.w3.org/2000/svg">
<title>Signature of Charles A. Lindbergh.</title>
<path d="m224 84.712c0-0.70845 3.8479-5.3209 8.551-10.25 9.7974-10.268 15.449-16.828 15.449-17.932 0-0.42-0.91746-0.52372-2.0388-0.23048-2.1589 0.56457-5.9612-2.605-5.9612-4.9693 0-1.3998-6.885-0.98737-12.362 0.74055-1.724 0.54389-3.5133 0.53553-4.5-0.02104-1.207-0.68084-2.3319-0.26194-4.2753 1.5921-1.4505 1.3838-4.365 3.11-6.4766 3.8359-3.4764 1.1951-3.9623 1.1444-5.1397-0.53661-1.2536-1.7898-1.4665-1.7682-5.9223 0.60102-2.5421 1.3516-5.498 2.4575-6.5687 2.4575s-3.2158 0.90368-4.7669 2.0082c-1.5511 1.1045-4.2589 2.2959-6.0172 2.6476l-3.197 0.6394 0.67178-3.9762c0.91085-5.3913-0.99707-7.1196-5.3657-4.8605-1.7636 0.91199-4.0876 1.3269-5.4776 0.97806-1.517-0.38075-3.435 0.06272-5.1603 1.1932-2.6882 1.7613-2.7766 1.7529-4.2061-0.40003l-1.4602-2.1992-9.6306 7.4696 0.51774 6c0.28476 3.3 0.97185 7.4927 1.5269 9.317s0.70247 3.6236 0.32768 3.9984c-1.2822 1.2823-3.3095-2.911-4.5271-9.3643-0.66948-3.5481-1.6054-6.4511-2.0798-6.4511s-2.336 0.89832-4.1368 1.9963c-3.5763 2.1804-5.1251 2.5325-4.6075 1.0472 0.18333-0.52609 2.3583-2.0218 4.8333-3.3237 3.9778-2.0924 4.5368-2.806 4.8166-6.1486 0.57685-6.8891-0.48224-7.2524-4.9143-1.6859-2.2398 2.8131-4.725 5.1147-5.5225 5.1147-2.263 0-4e-3 -3.5022 7.0959-11 10.267-10.843 15.623-19.528 10.774-17.472-9.032 3.8298-13.6 4.4825-13.073 1.8678 0.43197-2.1431 8.2888-7.7533 9.9832-7.1285 0.86685 0.31965 0.45722 0.84894-1.1598 1.4986-1.375 0.55244-3.4 2.0235-4.5 3.2689l-2 2.2645 3-0.6855c8.4325-1.9268 12.976-4.7575 17.578-10.952 6.4318-8.6575 14.364-13.621 17.213-10.771 1.4148 1.4148-1.6322 7.6398-4.1512 8.4808-5.9926 2.0006-14.448 8.9145-20.139 16.467-3.3729 4.4762-5.9342 8.4811-5.6918 8.8998 0.2424 0.41873 0.12779 3.1238-0.2547 6.0113-0.39839 3.0076-0.30547 5.25 0.21756 5.25 1.1688 0 5.0809-3.048 10.518-8.1947 4.9104-4.6484 6.3783-4.3884 3.6654 0.64922-2.7837 5.169-1.0848 5.39 4.5981 0.59809 5.1114-4.31 7.468-4.7173 5.0692-0.87607-1.2305 1.9704-1.1456 2.0464 1.5378 1.3766 1.5622-0.38995 3.5508-1.3489 4.4191-2.1311 2.3295-2.0983 2.9213-1.7651 2.9213 1.6453 0 2.7218 0.25353 2.9885 2.25 2.3673 1.2375-0.38504 3.9388-2.2154 6.0029-4.0674 2.0641-1.852 4.5391-3.3813 5.5-3.3984 1.0402-0.01852 5.1506-4.5708 10.158-11.25 4.626-6.1704 10.187-12.681 12.358-14.469 3.847-3.1674 6.731-4.1717 6.731-2.3439 0 1.1764-22.88 29.85-26.347 33.018-2.649 2.4209-3.3897 4.0757-1.8242 4.0757 2.7292 0 11.091-7.4203 17.802-15.797 4.2752-5.3367 12.55-14.541 18.39-20.453 9.9543-10.08 13.98-12.75 13.98-9.2744 0 2.0014-13.643 16.695-23.668 25.49-11.686 10.253-18.158 19.034-14.029 19.034 1.9744 0 9.697-5.985 9.697-7.5151 0-0.73813 0.71128-2.0533 1.5806-2.9227 1.9106-1.9106 4.0504-1.0275 2.3818 0.98299-1.293 1.558-0.48513 3.4548 1.4716 3.4548 0.72379 0 1.5787-1.3138 1.8999-2.9196 0.35811-1.7905 1.4122-3.1824 2.7257-3.5993 2.7137-0.8613 4.8613 0.99803 3.1404 2.7189-3.0182 3.0183 0.84838 3.8606 5.8497 1.2743 2.7842-1.4398 2.9503-1.4149 2.9503 0.44098 0 3.2734 1.7107 3.3068 6.1108 0.11943 2.3041-1.6691 5.3593-3.0416 6.7893-3.05 3.4256-0.02018 4.1762-0.58365 8.6391-6.4847 2.0798-2.75 6.1419-7.475 9.0269-10.5 2.885-3.025 6.749-7.2195 8.5866-9.321 4.9681-5.6816 11.847-9.535 11.847-6.6361 0 0.57356-1.9392 3.1611-4.3093 5.75s-6.3824 7.6322-8.9161 11.207c-2.5338 3.575-8.0196 9.8637-12.191 13.975-5.3138 5.2375-7.5839 8.2023-7.5839 9.905 0 2.2908 0.10476 2.3352 1.8287 0.77503 2.3779-2.1519 3.571-2.1095 2.67 0.09501-1.486 3.6361-3.4289 12.893-3.4632 16.5-0.0196 2.0625-0.49676 3.75-1.0604 3.75-1.9111 0-2.7022-4.476-1.9277-10.907 1.5287-12.694 1.0594-12.526-17.188 6.1583-8.9976 9.213-16.697 16.751-17.109 16.75-0.4125-5.19e-4 -0.75-0.58058-0.75-1.289zm-35.046-24.183c4.0516-2.5577 8.0463-6.3544 8.0463-7.6474 0-1.1946-9.3374 4.2298-11.228 6.5226-3.4284 4.1582-2.2717 4.5672 3.1814 1.1248zm67.796-7.8523c2.6345-2.3717 3.2952-5.7892 0.70332-3.6382-0.85067 0.706-2.5142 2.6424-3.6967 4.303-2.259 3.1724-0.94495 2.8806 2.9934-0.66483zm-5.642 0.07308c0.81962-0.6875 2.0859-2.0377 2.814-3.0005 1.1091-1.4667 0.57477-1.3856-3.296 0.5-2.5408 1.2378-4.6211 2.588-4.6228 3.0005-5e-3 1.2046 3.4795 0.86331 5.1048-0.5zm-35.692-19.569c3.1785-4.0255 5.5454-7.5528 5.2596-7.8385-0.62563-0.62563-16.676 19.34-16.676 20.744 0 1.1244 3.1503-2.4368 11.416-12.905zm61.312-1.9991c4.1077-5.125 7.2411-9.5455 6.9631-9.8235-0.60932-0.60932-18.058 19.559-19.755 22.834-2.0891 4.032 4.5208-2.6907 12.792-13.01zm-41.257-6.1535c3.805-3.8344 6.6936-7.1962 6.4191-7.4708s-3.8385 2.8627-7.92 6.9716c-4.0815 4.1089-6.9701 7.4707-6.4191 7.4707 0.55098 0 4.115-3.1372 7.92-6.9716zm-67.336 1.6978c7.6976-4.1472 12.312-8.6122 10.634-10.29-0.84691-0.84692-9.544 5.439-11.685 8.4452-2.4751 3.476-2.358 3.6817 1.051 1.8451zm-62.125 32.786c-0.85981-1.036-0.75604-2.1034 0.42688-4.3909 0.85956-1.6622 1.5628-3.2734 1.5628-3.5804s-2.4607 0.83051-5.4682 2.5278c-7.695 4.3428-11.624 2.7554-8.3768-3.3847 3.6342-6.8727 22.855-24.945 32.234-30.309 4.9104-2.8082 9.1794-3.0633 10.457-0.62486 1.8 3.435-0.32229 6.0476-14.599 17.973-6.6162 5.5264-13.471 15.824-12.974 19.489 0.41469 3.0539-1.5117 4.4119-3.2638 2.3008zm-1.0626-8.8648c4.329-2.9352 4.3292-4.9365 3.4e-4 -2.6198-2.5492 1.3643-4.3101 0.09752-2.8303-2.0361 0.77104-1.1118 1.1626-1.1764 1.5376-0.25377 0.59192 1.4562 7.5113-2.0989 13.845-7.1133 2.2-1.7419 5.9401-4.4753 8.3113-6.0743 11.424-7.7036 12.562-16.368 1.3989-10.65-11.315 5.796-33.007 28.384-30.756 32.026 0.79508 1.2865 3.0359 0.42139 8.4932-3.2789zm12.802 8.7739c-1.121-1.1282-0.90444-5.208 0.31653-5.9626 1.7641-1.0903 2.2858 0.32329 1.333 3.6121-0.49477 1.7079-1.2371 2.7656-1.6496 2.3504zm-67.16-2.0482c-0.34333-0.89471-0.10235-2.2556 0.53551-3.0242 2.1036-2.5346 0.17312-2.4913-3.6177 0.08121-2.0498 1.391-4.6901 2.4774-5.8672 2.4141s-2.9278 0.219-3.8903 0.62727c-1.0598 0.44954-1.75 0.3057-1.75-0.36469 0-0.60884-0.52707-1.107-1.1713-1.107-0.64419 0-1.9376-0.69355-2.8743-1.5412-1.5473-1.4003-1.9792-1.3089-4.7231 1-3.0035 2.5273-5.2314 3.2688-5.2314 1.7412 0-0.44 0.5325-1.3325 1.1833-1.9833 2.2212-2.2212-0.1316-2.5067-5.8458-0.70939-5.0426 1.5861-6.0067 1.6281-8.2727 0.3606-3.6263-2.0284-3.6441-4.837-0.073842-11.697 4.9112-9.4365 17.288-19.89 25.595-21.616 2.2064-0.45864 3.7147-0.1304 5.2933 1.152l2.2076 1.7934-3.1457 4.2717c-3.1805 4.3189-9.8295 8.2283-13.994 8.2283-1.8371 0-2.0637-0.39688-1.5027-2.632 0.85948-3.4245 6.5562-8.2978 6.5562-5.6086 0 0.4177-0.9 1.3215-2 2.0085-2.4175 1.5098-2.7695 4.7413-0.41821 3.8391 0.86998-0.33384 1.9937-0.60699 2.4971-0.60699 0.50343 0 2.7166-1.6274 4.9182-3.6164 4.5162-4.0801 5.3058-7.3964 1.7529-7.3617-5.9961 0.05853-16.959 8.0056-22.7 16.455-8.1139 11.943-4.2886 16.924 8.3873 10.922 4.907-2.3233 6.4259-3.8954 14.252-14.75 11.24-15.59 19.915-24.65 23.604-24.65 2.2561 0 2.707 0.43781 2.707 2.6288 0 3.0185-11.968 15.842-25.653 27.486-7.3925 6.29-10.098 9.4683-8.9962 10.57 0.21888 0.21888 1.7569-0.74552 3.4179-2.1431 3.8018-3.199 4.4895-3.2022 3.0369-0.01397-0.88086 1.9333-0.86684 2.8117 0.05964 3.7382 0.9481 0.9481 1.7647 0.50363 3.7609-2.0469 2.911-3.7195 8.1867-6.8055 9.4592-5.5329 0.47418 0.47418-0.26934 2.1839-1.6678 3.8351-2.2723 2.683-2.407 2.7307-1.3537 0.47946 1.0799-2.3082 1.0428-2.3793-0.48388-0.92754-1.7199 1.6356-1.2374 4.9275 0.7222 4.9275 0.59856 0 2.3341-1.1936 3.8569-2.6525 2.3039-2.2072 3.0248-2.4398 4.2951-1.3856 0.976 0.81001 1.3106 2.1272 0.92775 3.6525-0.47642 1.8982-0.2036 2.3856 1.3354 2.3856 2.3755 0 4.813-2.5703 10.444-11.013 6.5072-9.7571 18.298-23.489 22.283-25.952 3.9197-2.4225 5.9754-1.931 4.9843 1.1917-1.1037 3.4774-12.523 17.723-20.398 25.447-4.1086 4.0297-7.0551 7.3267-6.5476 7.3267 0.50745 0 2.3558-1.3891 4.1075-3.0869 1.7517-1.6978 3.45-2.6579 3.774-2.1336 0.32403 0.52429-0.30024 1.7581-1.3873 2.7419-4.4532 4.0301 0.1169 4.9539 4.8412 0.97866 5.7244-4.8168 7.2204-2.4966 1.5821 2.4539-2.7211 2.3892-4.2472 3.0333-6.25 2.6378-9.1725-1.8113-10.195-1.7905-14.637 0.2974-5.3951 2.536-7.0957 2.6399-7.9229 0.48421zm19.359-10.623c4.0565-3.4998 13.529-14.52 16.331-19 0.94606-1.5125 2.4469-3.875 3.3351-5.25 0.88826-1.375 1.1675-2.5 0.62058-2.5-1.8206 0-8.6503 7.4114-16.139 17.513-4.0717 5.4927-7.8393 10.549-8.3724 11.237-1.806 2.3289 0.43895 1.2661 4.2246-2zm-21.623-17.696c11.862-11.564 13.466-13.662 11.755-15.373-0.80557-0.80557-3.1969 1.0489-8.8426 6.8574-7.4179 7.6317-18.161 21.748-15.174 19.94 0.78971-0.47824 6.3077-5.619 12.262-11.424zm147.67 3.0681c0-0.48266 0.675-1.4378 1.5-2.1224 1.6282-1.3513 1.8317-1.0281 0.89301 1.4182-0.64255 1.6745-2.393 2.1896-2.393 0.70423z"/></svg>
